<svg width="89" height="85" viewBox="0 0 89 85" fill="none" xmlns="http://www.w3.org/2000/svg">
<path fill-rule="evenodd" clip-rule="evenodd" d="M86.8617 46.1559C88.5407 44.0474 88.5407 41.0408 86.8617 38.8932L80.8876 31.3182C80.6143 30.9667 80.4581 30.4982 80.4581 30.0296L80.8485 20.4241C80.9657 17.7299 79.2086 15.309 76.5924 14.5671L67.3383 11.9509C66.9088 11.8338 66.5184 11.5605 66.245 11.17L60.8956 3.16542C59.3728 0.900706 56.5224 0.00262958 53.9843 0.939753L44.9645 4.25873C44.535 4.41492 44.0664 4.41492 43.5979 4.25873L34.5781 0.900706C32.04 -0.0364172 29.1896 0.900706 27.6668 3.12637L22.3174 11.131C22.044 11.5214 21.6536 11.7948 21.2241 11.9119L11.97 14.528C9.35384 15.2699 7.59673 17.6908 7.71387 20.3851L8.10434 29.9906C8.10434 30.4591 7.9872 30.9277 7.67483 31.2791L1.70067 38.8542C0.0216532 40.9627 0.0216532 43.9693 1.70067 46.1169L7.67483 53.692C7.94815 54.0434 8.10434 54.512 8.10434 54.9805L7.71387 64.586C7.59673 67.2803 9.35384 69.7012 11.97 70.443L21.2241 73.0592C21.6536 73.1763 22.044 73.4497 22.3174 73.8401L27.6668 81.8447C29.1896 84.1094 32.04 85.0075 34.5781 84.0704L43.5979 80.7514C44.0274 80.5952 44.496 80.5952 44.9645 80.7514L53.9843 84.0704C56.5224 85.0075 59.3728 84.0704 60.8956 81.8447L66.245 73.8401C66.5184 73.4497 66.9088 73.1763 67.3383 73.0592L76.5924 70.443C79.2086 69.7012 80.9657 67.2803 80.8485 64.586L80.4581 54.9805C80.4581 54.512 80.5752 54.0434 80.8876 53.692L86.8617 46.1169V46.1559ZM83.777 41.3532C84.3237 42.056 84.3237 43.0712 83.777 43.7741L77.8029 51.3492C76.9438 52.4425 76.4753 53.8091 76.5534 55.2148L76.9439 64.8203C76.9439 65.7184 76.3972 66.5384 75.5382 66.7726L66.2841 69.3888C64.9565 69.7792 63.7851 70.5992 63.0041 71.7706L57.6547 79.7752C57.1471 80.5171 56.21 80.8295 55.351 80.5171L46.3312 77.1981C45.0036 76.7296 43.5979 76.7296 42.2703 77.1981L33.2505 80.5171C32.3914 80.8295 31.4543 80.5171 30.9467 79.7752L25.5973 71.7706C24.8164 70.5992 23.645 69.7792 22.3174 69.3888L13.0633 66.7726C12.2043 66.5384 11.6186 65.7184 11.6576 64.8203L12.0481 55.2148C12.0481 53.8091 11.6576 52.4425 10.7986 51.3492L4.82441 43.7741C4.27775 43.0712 4.27775 42.056 4.82441 41.3532L10.7986 33.7781C11.6576 32.6848 12.1262 31.3182 12.0481 29.9125L11.6576 20.307C11.6576 19.4089 12.2043 18.5889 13.0633 18.3546L22.3174 15.7385C23.645 15.348 24.8164 14.528 25.5973 13.3566L30.9467 5.35204C31.4543 4.61015 32.3914 4.29778 33.2505 4.61015L42.2703 7.92913C43.5979 8.39769 45.0036 8.39769 46.3312 7.92913L55.351 4.61015C56.21 4.29778 57.1471 4.61015 57.6547 5.35204L63.0041 13.3566C63.7851 14.528 64.9565 15.348 66.2841 15.7385L75.5382 18.3546C76.3972 18.5889 76.9829 19.4089 76.9439 20.307L76.5534 29.9125C76.5143 31.3182 76.9438 32.6848 77.8029 33.7781L83.777 41.3532ZM67.6117 27.2573C64.8003 24.4069 60.1537 24.2116 57.1471 26.8668L38.2875 43.3055L31.3762 37.2533C28.3696 34.6371 23.684 34.7933 20.9117 37.6437C18.0613 40.5723 18.2565 45.1407 21.3412 47.835L33.2895 58.2604C36.1399 60.7594 40.4741 60.7594 43.3246 58.2604L67.2212 37.4485C70.3059 34.7543 70.5011 30.1858 67.6507 27.2573H67.6117ZM59.7242 29.7953C61.1689 28.5068 63.5117 28.6239 64.8393 29.9906C66.1279 31.2791 66.0498 33.3095 64.6441 34.52L40.7475 55.3319C39.3808 56.5424 37.1942 56.5424 35.8276 55.3319L23.8792 44.9064C22.4736 43.696 22.3955 41.7046 23.684 40.377C25.0116 39.0104 27.3154 38.9323 28.7991 40.1818L36.999 47.3273C37.7409 47.9521 38.8342 47.9521 39.5761 47.3273L59.7242 29.7953Z" fill="#1F1F23"/>
</svg>
