<svg width="72" height="70" viewBox="0 0 72 70" fill="none" xmlns="http://www.w3.org/2000/svg">
<path d="M5.66602 56.7917V17.8333V55.7017V55.344V56.7917ZM6.75596 62.1042C4.96683 62.1042 3.45247 61.4844 2.21289 60.2448C0.973307 59.0052 0.353516 57.4908 0.353516 55.7017V18.9233C0.353516 17.1341 0.973307 15.6198 2.21289 14.3802C3.45247 13.1406 4.96683 12.5208 6.75596 12.5208H21.6035V6.52745C21.6035 4.73832 22.2233 3.22396 23.4629 1.98438C24.7025 0.744792 26.2168 0.125 28.006 0.125H39.9927C41.7819 0.125 43.2962 0.744792 44.5358 1.98438C45.7754 3.22396 46.3952 4.73832 46.3952 6.52745V12.5208H61.2427C63.0319 12.5208 64.5462 13.1406 65.7858 14.3802C67.0254 15.6198 67.6452 17.1341 67.6452 18.9233V33.9276C66.8324 33.3644 65.9889 32.8763 65.1147 32.4631C64.2405 32.0499 63.3131 31.6821 62.3327 31.3598V18.9233C62.3327 18.6051 62.2306 18.3439 62.0263 18.1397C61.8221 17.9355 61.5609 17.8333 61.2427 17.8333H6.75596C6.4378 17.8333 6.17661 17.9355 5.97237 18.1397C5.76813 18.3439 5.66602 18.6051 5.66602 18.9233V55.7017C5.66602 56.0199 5.76813 56.2811 5.97237 56.4853C6.17661 56.6895 6.4378 56.7917 6.75596 56.7917H32.4941C32.6488 57.7361 32.8521 58.6454 33.1042 59.5196C33.3562 60.3932 33.6682 61.2548 34.0401 62.1042H6.75596ZM26.916 12.5208H41.0827V6.52745C41.0827 6.20988 40.9806 5.94868 40.7763 5.74386C40.5721 5.53962 40.3109 5.4375 39.9927 5.4375H28.006C27.6878 5.4375 27.4266 5.53962 27.2224 5.74386C27.0181 5.94868 26.916 6.20988 26.916 6.52745V12.5208ZM55.2494 69.1875C50.827 69.1875 47.0651 67.6368 43.9638 64.5355C40.8625 61.4342 39.3119 57.6724 39.3119 53.25C39.3119 48.8276 40.8625 45.0658 43.9638 41.9645C47.0651 38.8632 50.827 37.3125 55.2494 37.3125C59.6717 37.3125 63.4336 38.8632 66.5349 41.9645C69.6362 45.0658 71.1869 48.8276 71.1869 53.25C71.1869 57.6724 69.6362 61.4342 66.5349 64.5355C63.4336 67.6368 59.6717 69.1875 55.2494 69.1875ZM56.8157 52.6098V42.8295H53.683V53.8902L61.0931 61.3002L63.2996 59.0938L56.8157 52.6098Z" fill="#1F1F23"/>
</svg>
