<svg width="49" height="46" viewBox="0 0 49 46" fill="none" xmlns="http://www.w3.org/2000/svg">
<path d="M19.4995 18.2275C17.0933 18.2275 15.0335 17.3709 13.3201 15.6575C11.6064 13.9438 10.7495 11.8838 10.7495 9.47754C10.7495 7.07129 11.6064 5.0115 13.3201 3.29816C15.0335 1.58441 17.0933 0.727539 19.4995 0.727539C21.9058 0.727539 23.9656 1.58441 25.6789 3.29816C27.3926 5.0115 28.2495 7.07129 28.2495 9.47754C28.2495 11.8838 27.3926 13.9438 25.6789 15.6575C23.9656 17.3709 21.9058 18.2275 19.4995 18.2275ZM19.4995 14.4775C20.8745 14.4775 22.0516 13.988 23.0308 13.0088C24.0099 12.0296 24.4995 10.8525 24.4995 9.47754C24.4995 8.10254 24.0099 6.92546 23.0308 5.94629C22.0516 4.96712 20.8745 4.47754 19.4995 4.47754C18.1245 4.47754 16.9474 4.96712 15.9683 5.94629C14.9891 6.92546 14.4995 8.10254 14.4995 9.47754C14.4995 10.8525 14.9891 12.0296 15.9683 13.0088C16.9474 13.988 18.1245 14.4775 19.4995 14.4775ZM46.1439 45.7757L38.817 38.4488C37.9741 38.9809 37.0845 39.3975 36.1483 39.6988C35.2124 40 34.2478 40.1507 33.2545 40.1507C30.4949 40.1507 28.1535 39.1873 26.2301 37.2607C24.3072 35.3336 23.3458 32.9938 23.3458 30.2413C23.3458 27.4888 24.3091 25.1509 26.2358 23.2275C28.1628 21.3046 30.5026 20.3432 33.2551 20.3432C36.0076 20.3432 38.3456 21.3061 40.2689 23.2319C42.1918 25.1577 43.1533 27.4961 43.1533 30.2469C43.1533 31.2436 43.0026 32.2098 42.7014 33.1457C42.4001 34.0819 41.9835 34.9715 41.4514 35.8144L48.7783 43.1413L46.1439 45.7757ZM33.2495 36.4007C34.9837 36.4007 36.4428 35.8086 37.627 34.6244C38.8112 33.4402 39.4033 31.9811 39.4033 30.2469C39.4033 28.5127 38.8112 27.0536 37.627 25.8694C36.4428 24.6852 34.9837 24.0932 33.2495 24.0932C31.5153 24.0932 30.0562 24.6852 28.872 25.8694C27.6878 27.0536 27.0958 28.5127 27.0958 30.2469C27.0958 31.9811 27.6878 33.4402 28.872 34.6244C30.0562 35.8086 31.5153 36.4007 33.2495 36.4007ZM0.749512 37.2663V31.7469C0.749512 30.5065 1.07576 29.3663 1.72826 28.3263C2.38035 27.2863 3.27534 26.4777 4.41326 25.9007C6.37784 24.9136 8.74555 24.0371 11.5164 23.2713C14.2872 22.505 17.3216 22.1861 20.6195 22.3144C20.2478 22.904 19.9251 23.5111 19.6514 24.1357C19.3781 24.7607 19.1608 25.4084 18.9995 26.0788C16.2591 26.1109 13.7656 26.4738 11.5189 27.1675C9.27222 27.8613 7.49014 28.5544 6.17264 29.2469C5.64389 29.5032 5.23284 29.8546 4.93951 30.3013C4.64618 30.748 4.49951 31.2298 4.49951 31.7469V33.5163H18.7114C18.8556 34.1763 19.0526 34.8228 19.3026 35.4557C19.5526 36.089 19.8474 36.6925 20.187 37.2663H0.749512Z" fill="#1F1F23"/>
</svg>