<svg width="16" height="20" viewBox="0 0 16 20" fill="none" xmlns="http://www.w3.org/2000/svg">
<path d="M8.05166 9.40828C8.55006 9.40828 8.97616 9.23079 9.32996 8.87582C9.68393 8.52085 9.86092 8.09416 9.86092 7.59576C9.86092 7.09736 9.68343 6.67118 9.32846 6.31721C8.97349 5.9634 8.54672 5.7865 8.04815 5.7865C7.54975 5.7865 7.12365 5.96399 6.76985 6.31896C6.41588 6.67393 6.23889 7.1007 6.23889 7.59927C6.23889 8.09767 6.41638 8.52377 6.77135 8.87757C7.12633 9.23138 7.55309 9.40828 8.05166 9.40828ZM8.04991 17.0703C10.0098 15.3158 11.5096 13.633 12.5493 12.0217C13.589 10.4105 14.1088 8.99929 14.1088 7.78811C14.1088 5.96182 13.5286 4.46045 12.3682 3.28399C11.2078 2.10754 9.76834 1.51931 8.04991 1.51931C6.33148 1.51931 4.89205 2.10754 3.73163 3.28399C2.5712 4.46045 1.99099 5.96182 1.99099 7.78811C1.99099 8.99929 2.51084 10.4105 3.55055 12.0217C4.59026 13.633 6.09004 15.3158 8.04991 17.0703ZM8.04991 19.0699C5.5287 16.8853 3.63812 14.8523 2.37819 12.9707C1.11825 11.089 0.488281 9.36144 0.488281 7.78811C0.488281 5.47628 1.23605 3.60465 2.73157 2.17324C4.22727 0.741829 6.00005 0.026123 8.04991 0.026123C10.0998 0.026123 11.8725 0.741829 13.3682 2.17324C14.8638 3.60465 15.6115 5.47628 15.6115 7.78811C15.6115 9.36144 14.9816 11.089 13.7216 12.9707C12.4617 14.8523 10.5711 16.8853 8.04991 19.0699Z" fill="#5F6368"/>
</svg>
