<svg width="23" height="23" viewBox="0 0 23 23" fill="none" xmlns="http://www.w3.org/2000/svg">
<path d="M22.0018 20.744L14.9951 13.7372C16.0824 12.3315 16.6705 10.6129 16.6705 8.80523C16.6705 6.64142 15.826 4.61251 14.299 3.08274C12.7719 1.55296 10.7376 0.711182 8.57647 0.711182C6.41536 0.711182 4.38106 1.55566 2.85398 3.08274C1.3242 4.60982 0.482422 6.64142 0.482422 8.80523C0.482422 10.9663 1.3269 13.0006 2.85398 14.5277C4.38106 16.0575 6.41266 16.8993 8.57647 16.8993C10.3841 16.8993 12.1001 16.3111 13.5057 15.2265L20.5125 22.2306C20.533 22.2511 20.5574 22.2674 20.5843 22.2786C20.6111 22.2897 20.6399 22.2954 20.669 22.2954C20.698 22.2954 20.7268 22.2897 20.7537 22.2786C20.7805 22.2674 20.8049 22.2511 20.8255 22.2306L22.0018 21.0569C22.0224 21.0364 22.0387 21.012 22.0498 20.9851C22.0609 20.9583 22.0666 20.9295 22.0666 20.9004C22.0666 20.8714 22.0609 20.8426 22.0498 20.8157C22.0387 20.7889 22.0224 20.7645 22.0018 20.744V20.744ZM12.8501 13.0789C11.7062 14.2202 10.1899 14.8488 8.57647 14.8488C6.96306 14.8488 5.44677 14.2202 4.30281 13.0789C3.16155 11.9349 2.53291 10.4186 2.53291 8.80523C2.53291 7.19182 3.16155 5.67283 4.30281 4.53157C5.44677 3.39031 6.96306 2.76167 8.57647 2.76167C10.1899 2.76167 11.7089 3.38761 12.8501 4.53157C13.9914 5.67553 14.62 7.19182 14.62 8.80523C14.62 10.4186 13.9914 11.9376 12.8501 13.0789Z" fill="#595959"/>
</svg>
