<svg width="54" height="44" viewBox="0 0 54 44" fill="none" xmlns="http://www.w3.org/2000/svg">
<path d="M0.706055 43.4914V37.9339C0.706055 36.7035 1.02814 35.5722 1.6723 34.5402C2.31647 33.5081 3.21543 32.7035 4.36918 32.1264C6.44626 31.0752 8.77001 30.2066 11.3404 29.5208C13.9108 28.8349 16.6161 28.492 19.4561 28.492C22.2956 28.492 25.0006 28.8349 27.5711 29.5208C30.1415 30.2066 32.4652 31.0752 34.5423 32.1264C35.6961 32.7035 36.595 33.5081 37.2392 34.5402C37.8838 35.5722 38.2061 36.7035 38.2061 37.9339V43.4914H0.706055ZM4.45605 39.742H34.4561V37.9339C34.4561 37.3635 34.3013 36.8747 33.9917 36.4677C33.6825 36.0606 33.2923 35.7289 32.8211 35.4727C31.289 34.6906 29.3458 33.9566 26.9917 33.2708C24.6375 32.5849 22.1256 32.242 19.4561 32.242C16.7861 32.242 14.274 32.5849 11.9198 33.2708C9.56564 33.9566 7.62251 34.6906 6.09043 35.4727C5.61918 35.7289 5.22897 36.0606 4.9198 36.4677C4.61064 36.8747 4.45605 37.3635 4.45605 37.9339V39.742ZM19.4561 24.4533C17.0106 24.4533 14.9408 23.6064 13.2467 21.9127C11.5529 20.2185 10.7061 18.1006 10.7061 15.5589H10.1292C9.8021 15.5589 9.53605 15.4564 9.33105 15.2514C9.12605 15.0464 9.02355 14.7804 9.02355 14.4533C9.02355 14.1266 9.12605 13.8606 9.33105 13.6552C9.53605 13.4502 9.8021 13.3477 10.1292 13.3477H10.7061C10.7381 11.7772 11.1002 10.3583 11.7923 9.09078C12.4848 7.82287 13.4688 6.73536 14.7442 5.82828V8.20328C14.7442 8.53036 14.8469 8.79641 15.0523 9.00141C15.2573 9.20682 15.5233 9.30953 15.8504 9.30953C16.1771 9.30953 16.4429 9.20682 16.6479 9.00141C16.8533 8.79641 16.9561 8.53036 16.9561 8.20328V4.87641C17.3148 4.75141 17.7067 4.64974 18.1317 4.57141C18.5563 4.49266 18.9977 4.45328 19.4561 4.45328C19.9144 4.45328 20.3558 4.49266 20.7804 4.57141C21.205 4.64974 21.5969 4.75141 21.9561 4.87641V8.20328C21.9561 8.53036 22.0586 8.79641 22.2636 9.00141C22.4686 9.20682 22.7346 9.30953 23.0617 9.30953C23.3888 9.30953 23.6548 9.20682 23.8598 9.00141C24.0648 8.79641 24.1673 8.53036 24.1673 8.20328V5.82828C25.459 6.73536 26.4469 7.82287 27.1311 9.09078C27.8156 10.3583 28.174 11.7772 28.2061 13.3477H28.7829C29.1096 13.3477 29.3756 13.4502 29.5811 13.6552C29.7861 13.8606 29.8886 14.1266 29.8886 14.4533C29.8886 14.7804 29.7861 15.0464 29.5811 15.2514C29.3756 15.4564 29.1096 15.5589 28.7829 15.5589H28.2061C28.2061 18.1006 27.359 20.2185 25.6648 21.9127C23.9711 23.6064 21.9015 24.4533 19.4561 24.4533ZM19.4561 20.7033C20.8631 20.7033 22.0481 20.2218 23.0111 19.2589C23.9744 18.2956 24.4561 17.1104 24.4561 15.7033H14.4561C14.4561 17.1104 14.9375 18.2956 15.9004 19.2589C16.8638 20.2218 18.049 20.7033 19.4561 20.7033ZM38.2542 29.3089L37.9754 27.482C37.6933 27.3987 37.4096 27.285 37.1242 27.1408C36.8388 26.9966 36.584 26.8122 36.3598 26.5877L34.6579 27.2608L33.5523 25.2995L34.9754 24.1458C34.9433 23.9887 34.9273 23.8395 34.9273 23.6983V22.8164C34.9273 22.6835 34.9433 22.5304 34.9754 22.357L33.5523 21.2033L34.6579 19.242L36.3598 19.9152C36.5586 19.7164 36.8069 19.5385 37.1048 19.3814C37.4031 19.2243 37.6933 19.1041 37.9754 19.0208L38.2542 17.1939H40.4654L40.7442 19.0208C41.0263 19.1041 41.3165 19.2243 41.6148 19.3814C41.9127 19.5385 42.1611 19.7164 42.3598 19.9152L44.0617 19.242L45.1673 21.2033L43.7442 22.357C43.7763 22.5304 43.7923 22.6835 43.7923 22.8164V23.6983C43.7923 23.8395 43.7763 23.9887 43.7442 24.1458L45.1673 25.2995L44.0617 27.2608L42.3598 26.5877C42.1352 26.8122 41.8804 26.9966 41.5954 27.1408C41.31 27.285 41.0263 27.3987 40.7442 27.482L40.4654 29.3089H38.2542ZM39.3598 25.3189C39.924 25.3189 40.4096 25.1154 40.8167 24.7083C41.2238 24.3012 41.4273 23.8156 41.4273 23.2514C41.4273 22.6872 41.2238 22.2016 40.8167 21.7945C40.4096 21.3874 39.924 21.1839 39.3598 21.1839C38.7956 21.1839 38.31 21.3874 37.9029 21.7945C37.4958 22.2016 37.2923 22.6872 37.2923 23.2514C37.2923 23.8156 37.4958 24.3012 37.9029 24.7083C38.31 25.1154 38.7956 25.3189 39.3598 25.3189ZM44.1479 16.2802L43.7923 13.992C43.3694 13.8829 42.9496 13.7106 42.5329 13.4752C42.1163 13.2393 41.7669 12.9564 41.4848 12.6264L39.2442 13.4533L37.8311 11.0302L39.7154 9.49203C39.6321 9.26745 39.5825 9.06057 39.5667 8.87141C39.5504 8.68224 39.5423 8.47557 39.5423 8.25141C39.5423 8.02724 39.5504 7.82058 39.5667 7.63141C39.5825 7.44224 39.6321 7.23537 39.7154 7.01078L37.8311 5.47266L39.2442 3.04953L41.4848 3.87641C41.7669 3.54641 42.1163 3.26349 42.5329 3.02766C42.9496 2.79224 43.3694 2.61995 43.7923 2.51078L44.1479 0.222656H46.9748L47.3311 2.51078C47.754 2.61995 48.1738 2.79224 48.5904 3.02766C49.0071 3.26349 49.3565 3.54641 49.6386 3.87641L51.8792 3.04953L53.2923 5.47266L51.4079 7.01078C51.4913 7.23537 51.5408 7.44224 51.5567 7.63141C51.5729 7.82058 51.5811 8.02724 51.5811 8.25141C51.5811 8.47557 51.5729 8.68224 51.5567 8.87141C51.5408 9.06057 51.4913 9.26745 51.4079 9.49203L53.2923 11.0302L51.8792 13.4533L49.6386 12.6264C49.3565 12.9564 49.0071 13.2393 48.5904 13.4752C48.1738 13.7106 47.754 13.8829 47.3311 13.992L46.9748 16.2802H44.1479ZM45.5617 11.5208C46.4846 11.5208 47.2602 11.2066 47.8886 10.5783C48.5169 9.94995 48.8311 9.17432 48.8311 8.25141C48.8311 7.32849 48.5169 6.55287 47.8886 5.92453C47.2602 5.2962 46.4846 4.98203 45.5617 4.98203C44.6388 4.98203 43.8631 5.2962 43.2348 5.92453C42.6065 6.55287 42.2923 7.32849 42.2923 8.25141C42.2923 9.17432 42.6065 9.94995 43.2348 10.5783C43.8631 11.2066 44.6388 11.5208 45.5617 11.5208Z" fill="#1F1F23"/>
</svg>
