<svg width="14" height="15" viewBox="0 0 14 15" fill="none" xmlns="http://www.w3.org/2000/svg">
<path d="M6.99883 11.3876L2.92958 7.31837L3.85858 6.40887L6.34883 8.89912V0.0991211H7.64883V8.89912L10.1391 6.40887L11.0681 7.31837L6.99883 11.3876ZM1.89958 14.6991C1.44908 14.6991 1.06966 14.5437 0.761328 14.2329C0.452995 13.922 0.298828 13.5415 0.298828 13.0914V11.5799H1.59883V13.0914C1.59883 13.1684 1.63091 13.2389 1.69508 13.3029C1.75908 13.367 1.82958 13.3991 1.90658 13.3991H12.0911C12.1681 13.3991 12.2386 13.367 12.3026 13.3029C12.3667 13.2389 12.3988 13.1684 12.3988 13.0914V11.5799H13.6988V13.0914C13.6988 13.5415 13.5433 13.922 13.2323 14.2329C12.9213 14.5437 12.5406 14.6991 12.0901 14.6991H1.89958Z" fill="#8C8C8C"/>
</svg>
