<svg width="24" height="24" viewBox="0 0 24 24" fill="none" xmlns="http://www.w3.org/2000/svg">
<path d="M22.6754 0H1.32457C0.592863 0 0 0.592953 0 1.32457V22.6754C0 23.4069 0.592953 24 1.32457 24H12.8191V14.7059H9.69146V11.0838H12.8191V8.41267C12.8191 5.31275 14.7124 3.6248 17.4777 3.6248C18.8023 3.6248 19.9408 3.72345 20.2725 3.76751V7.00708L18.3547 7.00798C16.8507 7.00798 16.5595 7.7226 16.5595 8.77129V11.0838H20.1463L19.6793 14.7059H16.5596V24H22.6755C23.407 24 24 23.4068 24 22.6754V1.32457C23.9999 0.592863 23.4069 0 22.6754 0Z" fill="white"/>
</svg>
