<svg width="24" height="24" viewBox="0 0 24 24" fill="none" xmlns="http://www.w3.org/2000/svg">
<path d="M22.125 0H1.875C0.839062 0 0 0.839062 0 1.875V22.125C0 23.1609 0.839062 24 1.875 24H22.125C23.1609 24 24 23.1609 24 22.125V1.875C24 0.839062 23.1609 0 22.125 0ZM8.64374 17.0203H6.30468V9.53437H8.64374V17.0203ZM7.41093 8.59687H7.39218C6.54375 8.59687 5.99531 8.025 5.99531 7.29844C5.99531 6.55781 6.5625 6 7.42499 6C8.28749 6 8.81718 6.55781 8.83593 7.29844C8.84062 8.02031 8.29218 8.59687 7.41093 8.59687ZM18 17.0203H15.3469V13.1484C15.3469 12.1359 14.9344 11.4422 14.0203 11.4422C13.3219 11.4422 12.9328 11.9109 12.7547 12.3609C12.6891 12.5203 12.6984 12.7453 12.6984 12.975V17.0203H10.0687C10.0687 17.0203 10.1016 10.1578 10.0687 9.53437H12.6984V10.7109C12.8531 10.1953 13.6922 9.46406 15.0328 9.46406C16.6969 9.46406 18 10.5422 18 12.8578V17.0203Z" fill="white"/>
</svg>
